# xmcd
#
# Track frame offsets:
#	150
#	11125
#	26992
#	39275
#	57387
#	71985
#	85779
#	98160
#	109830
#	123195
#	139282
#	155542
#	172745
#	184342
#	197725
#
# Disc length: 2875 seconds
#
# Revision: 3
# Processed by: cddbd v1.5.2PL0 Copyright (c) Steve Scherf et al.
# Submitted via: audiograbber 1.83.01
#
DISCID=d00b390f
DTITLE=Various Artist - SC7553
DYEAR=1900
DGENRE=Oldies
TTITLE0=Frank Sinatra - I Get A Kick Out Of You
TTITLE1=Frank Sinatra - The Lady Is A Tramp
TTITLE2=Jimmy Durante - As Time Goes By
TTITLE3=Sammy Davis Jr - Mr Bojangles
TTITLE4=Rosemary Clooney - Hey There
TTITLE5=Tony Bennett - Rags To Riches
TTITLE6=Bing Crosby - Swinging On A Star
TTITLE7=Dean Martin - Memories Are Made Of This
TTITLE8=Andrews Sisters - Lullaby Of Broadway
TTITLE9=Fred Astaire - Cheek To Cheek
TTITLE10=Dorris Day - Secret Love
TTITLE11=Johnny Mathis - Misty
TTITLE12=Patti Page - Steam Heat
TTITLE13=Ella Fitzgerald - A Tisket A Tasket
TTITLE14=Judy Garland - The Man That Got Away
EXTD=Karaoke CD+G
EXTT0=
EXTT1=
EXTT2=
EXTT3=
EXTT4=
EXTT5=
EXTT6=
EXTT7=
EXTT8=
EXTT9=
EXTT10=
EXTT11=
EXTT12=
EXTT13=
EXTT14=
PLAYORDER=
